<svg xmlns="http://www.w3.org/2000/svg" viewBox="0 0 64 64">
  <rect width="64" height="64" rx="14" fill="#ffffff"/>
  <rect x="4" y="4" width="56" height="56" rx="14" fill="#f5f6f8" stroke="#d8dce5"/>
  <path fill="#25272d" d="M18 16h18.4c5.4 0 9.6 1.4 12.6 4.2 3 2.7 4.5 6.3 4.5 10.8 0 3.8-1.1 7-3.4 9.5-2 2.3-4.8 3.8-8.2 4.6L53 54H42.6L33 46h-5.4v8H18V16Zm9.6 8.4V38h8.2c2.7 0 4.8-.6 6.3-1.8 1.4-1.2 2.2-2.9 2.2-5.1s-.7-3.9-2.2-5c-1.5-1.1-3.6-1.7-6.3-1.7h-8.2Z"/>
  <path d="M34.2 44.4h8.7L53 54H43.2l-9-9.6Z" fill="#2563eb"/>
</svg>
